<?xml version="1.0" encoding="utf-8"?>
<svg width="50px" height="50px" viewBox="0 0 1024 1024" class="icon"  version="1.1" xmlns="http://www.w3.org/2000/svg">
  <svg viewBox="0 0 396 113" data-background-color="#fce44d" preserveAspectRatio="xMidYMid meet" height="285" width="1000" xmlns="http://www.w3.org/2000/svg" transform="matrix(2.522123813629, 0, 0, 2.522123813629, 302.000007370931, 85.999989663605)" style="transform-origin: 198px 56.5px;">
    <g id="tight-bounds" transform="matrix(1,0,0,1,0.24000005713901373,-0.121632608584747)">
      <svg viewBox="0 0 395.52 113.24326338888822" height="113.24326338888822" width="395.52">
        <rect width="161.7593562577768" height="3.900724944370506" y="54.876833080470455" x="233.76064374222318" fill="#000000" data-fill-palette-color="accent"/>
        <rect width="161.7593562577768" height="3.900724944370506" y="54.876833080470455" x="0" fill="#000000" data-fill-palette-color="accent"/>
        <rect width="161.7593562577768" height="3.900724944370506" y="47.07538319172944" x="233.76064374222318" fill="#000000" data-fill-palette-color="accent"/>
        <rect width="161.7593562577768" height="3.900724944370506" y="47.07538319172944" x="0" fill="#000000" data-fill-palette-color="accent"/>
        <g>
          <svg viewBox="0 0 395.52 113.24326338888822" height="113.24326338888822" width="395.52">
            <g transform="matrix(1,0,0,1,0,69.98887986874281)">
              <svg viewBox="0 0 395.52 43.25438352014541" height="43.25438352014541" width="395.52">
                <g id="textblocktransform">
                  <svg viewBox="0 0 395.52 43.25438352014541" height="43.25438352014541" width="395.52" id="textblock">
                    <g>
                      <svg viewBox="0 0 395.52 43.25438352014541" height="43.25438352014541" width="395.52">
                        <g transform="matrix(1,0,0,1,0,0)">
                          <svg width="395.52" viewBox="3.4000000953674316 -35.5 330.07000732421875 36.099998474121094" height="43.25438352014541" data-palette-color="#374151">
                            <path d="M3.4 0L3.4-34.9 18.9-34.9Q23.1-34.9 25.13-32.45 27.15-30 27.15-25.95L27.15-25.95Q27.15-23.75 26.63-22.33 26.1-20.9 25.28-20.08 24.45-19.25 23.4-18.88 22.35-18.5 21.25-18.45L21.25-18.45 21.25-17.65Q22.45-17.65 23.73-17.25 25-16.85 26.05-15.93 27.1-15 27.75-13.53 28.4-12.05 28.4-9.95L28.4-9.95Q28.4-7.9 27.85-6.08 27.3-4.25 26.25-2.9 25.2-1.55 23.7-0.78 22.2 0 20.3 0L20.3 0 3.4 0ZM10.55-14.65L10.55-6.05 18.3-6.05Q19.5-6.05 20.23-6.75 20.95-7.45 20.95-9.1L20.95-9.1 20.95-11.6Q20.95-13.25 20.23-13.95 19.5-14.65 18.3-14.65L18.3-14.65 10.55-14.65ZM10.55-28.85L10.55-20.55 17.15-20.55Q18.4-20.55 19.1-21.25 19.8-21.95 19.8-23.55L19.8-23.55 19.8-25.85Q19.8-27.45 19.1-28.15 18.4-28.85 17.15-28.85L17.15-28.85 10.55-28.85ZM55.1 0L33.5 0 33.5-34.9 55.1-34.9 55.1-28.65 40.65-28.65 40.65-20.75 52.9-20.75 52.9-14.55 40.65-14.55 40.65-6.25 55.1-6.25 55.1 0ZM68.09-13.2L68.09 0 60.95 0 60.95-34.9 76.05-34.9Q80.75-34.9 83.2-31.95 85.65-29 85.65-24.05L85.65-24.05Q85.65-20.2 84.2-17.55 82.75-14.9 79.9-13.85L79.9-13.85 86 0 78.25 0 72.84-13.2 68.09-13.2ZM68.09-19.15L75.15-19.15Q76.59-19.15 77.42-19.88 78.25-20.6 78.25-22.4L78.25-22.4 78.25-25.4Q78.25-27.2 77.42-27.93 76.59-28.65 75.15-28.65L75.15-28.65 68.09-28.65 68.09-19.15ZM111.14 0L111.14-5.5 110.34-5.5Q109.99-2.8 107.97-1.1 105.94 0.6 102.49 0.6L102.49 0.6Q99.99 0.6 97.74-0.35 95.49-1.3 93.79-3.4 92.09-5.5 91.07-8.93 90.04-12.35 90.04-17.3L90.04-17.3Q90.04-22.25 91.04-25.7 92.04-29.15 93.84-31.33 95.64-33.5 98.19-34.5 100.74-35.5 103.89-35.5L103.89-35.5Q108.59-35.5 111.69-33.48 114.79-31.45 116.54-27.45L116.54-27.45 110.69-24.1Q109.99-26.45 108.34-27.83 106.69-29.2 103.84-29.2L103.84-29.2Q100.99-29.2 99.32-27.4 97.64-25.6 97.64-22L97.64-22 97.64-12.9Q97.64-9.3 99.34-7.53 101.04-5.75 104.04-5.75L104.04-5.75Q106.74-5.75 108.52-7.13 110.29-8.5 110.29-11.2L110.29-11.2 110.29-13.25 104.54-13.25 104.54-19.25 117.14-19.25 117.14 0 111.14 0ZM150.04 0L142.99 0 140.84-8.55 130.14-8.55 127.99 0 121.14 0 131.04-34.9 140.14-34.9 150.04 0ZM139.09-14.3L136.94-22.35 135.84-28.4 135.04-28.4 133.94-22.35 131.89-14.3 139.09-14.3ZM177.79 0L177.79-18.2 178.19-24.05 177.39-24.05 175.24-18.5 169.44-5.85 163.69-18.5 161.54-24.05 160.74-24.05 161.14-18.2 161.14 0 154.44 0 154.44-34.9 161.94-34.9 166.69-24.5 169.29-17.05 169.79-17.05 172.39-24.5 177.04-34.9 184.49-34.9 184.49 0 177.79 0ZM203.99 0.6L203.99 0.6Q200.84 0.6 198.29-0.38 195.74-1.35 193.94-3.53 192.14-5.7 191.14-9.13 190.14-12.55 190.14-17.45L190.14-17.45Q190.14-22.35 191.14-25.78 192.14-29.2 193.94-31.38 195.74-33.55 198.29-34.52 200.84-35.5 203.99-35.5L203.99-35.5Q207.14-35.5 209.69-34.52 212.24-33.55 214.04-31.38 215.84-29.2 216.84-25.78 217.84-22.35 217.84-17.45L217.84-17.45Q217.84-12.55 216.84-9.13 215.84-5.7 214.04-3.53 212.24-1.35 209.69-0.38 207.14 0.6 203.99 0.6ZM203.99-5.7L203.99-5.7Q206.99-5.7 208.61-7.5 210.24-9.3 210.24-12.9L210.24-12.9 210.24-22Q210.24-25.6 208.61-27.4 206.99-29.2 203.99-29.2L203.99-29.2Q200.99-29.2 199.36-27.4 197.74-25.6 197.74-22L197.74-22 197.74-12.9Q197.74-9.3 199.36-7.5 200.99-5.7 203.99-5.7ZM255.73-28.65L247.38-28.65 247.38 0 240.23 0 240.23-28.65 231.88-28.65 231.88-34.9 255.73-34.9 255.73-28.65ZM284.03 0L276.98 0 274.83-8.55 264.13-8.55 261.98 0 255.13 0 265.03-34.9 274.13-34.9 284.03 0ZM273.08-14.3L270.93-22.35 269.83-28.4 269.03-28.4 267.93-22.35 265.88-14.3 273.08-14.3ZM305.08-17.9L315.13 0 306.88 0 300.53-12.5 299.83-12.5 293.68 0 286.03 0 295.88-17.9 286.58-34.9 294.83-34.9 300.43-23.45 301.23-23.45 306.88-34.9 314.53-34.9 305.08-17.9ZM333.47 0L318.12 0 318.12-5.65 322.22-5.65 322.22-29.25 318.12-29.25 318.12-34.9 333.47-34.9 333.47-29.25 329.37-29.25 329.37-5.65 333.47-5.65 333.47 0Z" opacity="1" transform="matrix(1,0,0,1,0,0)" fill="#374151" class="wordmark-text-0" data-fill-palette-color="primary" id="text-0"/>
                          </svg>
                        </g>
                      </svg>
                    </g>
                  </svg>
                </g>
              </svg>
            </g>
            <g transform="matrix(1,0,0,1,161.7593562577768,0)">
              <svg viewBox="0 0 72.00128748444637 59.777558024840964" height="59.777558024840964" width="72.00128748444637">
                <g>
                  <svg xmlns="http://www.w3.org/2000/svg" version="1.1" x="8" y="0" viewBox="3.43999981880188 0 93.41299438476562 99.71200561523438" enable-background="new 0 0 100 100" height="59.777558024840964" width="56.001287484446365" class="icon-icon-0" data-fill-palette-color="accent" id="icon-0">
                    <path fill="#000000" d="M8.57 58.227c-0.157 3.133 3.54 6.443 8.257 7.393 4.718 0.949 8.67-0.82 8.826-3.953 0.157-3.135-3.541-6.443-8.258-7.393C12.678 53.322 8.727 55.094 8.57 58.227zM91.39 58.227c-0.156-3.133-4.107-4.904-8.825-3.953-4.719 0.949-8.416 4.258-8.259 7.393 0.157 3.133 4.107 4.902 8.826 3.953C87.85 64.67 91.546 61.359 91.39 58.227zM75.061 68.285H24.762c1.65 3.471 12.281 6.146 25.148 6.146C62.78 74.432 73.41 71.756 75.061 68.285zM49.979 13.886c-10.645 0.067-23.055 0.451-33.242 2.9-0.905 0.172-1.011 1.124-1.011 1.124l-0.872 23.167c-0.074 4.018 4.514 5.844 35.124 5.941 30.61-0.097 35.2-1.923 35.124-5.941l-0.87-23.167c0 0-0.106-0.952-1.013-1.124C73.034 14.337 60.624 13.953 49.979 13.886zM50.147 91.148l-2.797-0.002c-10.396-0.041-20.596-0.238-29.079-0.865v4.732c0 2.596-2.104 4.699-4.698 4.699H9.709c-2.595 0-4.698-2.104-4.698-4.699v-9.883c-0.1-0.881-0.207-1.893-0.311-3.021-0.798-4.145-1.26-9.039-1.26-14.285 0-6.652 0.742-12.744 1.972-17.449 0.244-1.072 0.541-2.028 0.875-2.881 0.103-0.292 0.208-0.578 0.316-0.854l4.674-31.986c0 0 0.189-1.333 1.381-1.63 4.654-1.267 12.16-2.04 19.238-2.507l0.516-0.034c1.811-0.133 4.769-0.544 4.769-2.749l0.001-5.478C37.184 1.01 38.193 0 39.439 0h20.857c1.247 0 2.256 1.01 2.256 2.256l0.001 5.478c0 1.85 2.086 2.438 3.827 2.657 7.633 0.45 16.154 1.245 21.254 2.632 1.193 0.298 1.383 1.63 1.383 1.63l4.672 31.986c0.107 0.276 0.214 0.562 0.318 0.854 0.333 0.853 0.63 1.809 0.873 2.881 1.231 4.705 1.973 10.796 1.973 17.449 0 5.246-0.46 10.141-1.259 14.285-0.104 1.129-0.211 2.141-0.312 3.021v9.883c0 2.596-2.104 4.699-4.697 4.699h-3.863c-2.595 0-4.698-2.104-4.698-4.699v-4.732c-8.483 0.627-18.683 0.824-29.079 0.865L50.147 91.148z" data-fill-palette-color="accent"/>
                  </svg>
                </g>
              </svg>
            </g>
            <g/>
          </svg>
        </g>
      </svg>
    </g>
  </svg>
</svg>